# xmcd
#
# Track frame offsets:
#	150
#	17911
#	27871
#	47278
#	59387
#	80592
#	109049
#	118390
#	141320
#	153632
#	162171
#	174077
#	181723
#	185492
#	197751
#	214173
#	226460
#	239180
#	246216
#	253049
#	266834
#	289324
#	296477
#	301813
#
# Disc length: 4132 seconds
#
# Revision: 0
# Processed by: cddbd v1.5.2PL0 Copyright (c) Steve Scherf et al.
# Submitted via: EasyCDDAExtractor 16.0.8.2
#
DISCID=62102218
DTITLE=Συλλογικός δίσκος - Δημοτικά τραγ. της Σκύρου 3
DYEAR=2004
DGENRE=Παραδοσιακή
TTITLE0=Τσακαμή Ευφροσύνη - O Αυλωνιτιάνικος (Δεν είναι πόνος να πονεί)
TTITLE1=Κατσαρέλια Αγγελική - Ο πρωτόβαρες (Δεν είμαι ψεύτικος παράς)
TTITLE2=Ευσταθίου Μαριγώ -  Ο Καλημεργιάνικος (Ήθελα με την τύχη μου)
TTITLE3=Λύκου Άννα - Ο Θεριστής (Αχ, μικρό μου τσοπανόπουλο)
TTITLE4=Μελέντη Άννα - Ω, Παναγιά μου, Λυμπιανή
TTITLE5=Μαυρίκος Μανώλης ή Παπουλάκος - Ο Κωσταντής (Βρε Κωσταντή, κάνε καλά)
TTITLE6=Τσακαμή Ευφροσύνη - Το γαϊδουρινό (Πολλές φορές μεσάνυχτα)
TTITLE7=Φραγκούλη Σοφία - Εμείς εδώ δεν ήρθαμε
TTITLE8=Φτούλη Άννα - Η Σπυριδούλα (Βρυσούλα ήμουν στο βουνό)
TTITLE9=Τσακαμή Ευφροσύνη - Αποκριάτικο (Τι να του κάνω πως το λες)[ο γρήγορος
TTITLE9=]
TTITLE10=Τσακαμή Ευφροσύνη - Της κορέλλας (Δεν ήσουν συ που μού 'λεγες)[ο βαρύ
TTITLE10=ς]
TTITLE11=Τσακαμή Ευφροσύνη - Αποκριάτικο (Ήθελα να σ' αντάμωνα)[ο διπλός]
TTITLE12=Ζαχαριά Άννα - Άγγελος είσαι, μάτια μου
TTITLE13=Δαφνούλης Γεώργιος - Το τραγούδι του Μάη (Σαν του Μαγιού τα λούλουδα)
TTITLE14=Φεργάδη Μαρία - Δυό ήλιοι δυό φεγγάρια
TTITLE15=Δαφνούλης Γεώργιος - Ω, χρυσοπράσινε μ' αητέ
TTITLE16=Λύκου Άννα - Όντες εχτίστ' ο ουρανός
TTITLE17=Φεργάδη Μαρία - Μανώλαρε (Από σταβέντου έρχεται)
TTITLE18=Ευσταθίου Μαριγώ - Όλα τα πουλάκιά ζυγά-ζυγά
TTITLE19=Φραγκούλη Σοφία - Της νύχτας (Εδώ το λένε της Σαρούς)
TTITLE20=Μαυρίκος Μανώλης ή Παπουλάκος - Ο τζιτζινές (Όνταν θ' ανεστενάξου 'γω
TTITLE20=)
TTITLE21=Λύκου Άννα - Νανούρισμα (Νάνι που το 'σπερν' αητός)
TTITLE22=Μαυρογιώργης Σταμάτης - Σαν τη μαρμαροκολόνα
TTITLE23=Ευσταθίου Μαριγώ - Τα μάτια σου με κάνανε
EXTD=
EXTT0=
EXTT1=
EXTT2=
EXTT3=
EXTT4=
EXTT5=
EXTT6=
EXTT7=
EXTT8=
EXTT9=
EXTT10=
EXTT11=
EXTT12=
EXTT13=
EXTT14=
EXTT15=
EXTT16=
EXTT17=
EXTT18=
EXTT19=
EXTT20=
EXTT21=
EXTT22=
EXTT23=
PLAYORDER=
